<svg version="1" xmlns="http://www.w3.org/2000/svg" width="933.333" height="933.333" viewBox="0 0 700.000000 700.000000"><path d="M340.7 11.7c-.1 0-5.7.4-12.4.8-6.7.3-13 .7-14 .9-1 .2-4.5.7-7.8 1-40.6 4.6-87.2 20.3-126 42.4-34 19.4-70.3 50.5-94.8 81.5-34.5 43.6-57.4 93-67.6 145.7-2 10.5-2.5 13.3-3.6 22.5-.4 2.7-.8 6.1-1 7.5-2.1 13.2-2.1 61.2 0 72 .2 1 .6 4.7 1 8.2 1.1 10.5 6.3 35.5 10.6 50.3 13.8 47.8 39 93.7 71.3 129.7 46.8 52.3 104.5 87.3 172.1 104.2 5.5 1.4 11.4 2.7 13.1 3 1.7.3 6.5 1.2 10.8 2 4.2.9 10.9 1.8 14.9 2.2 4 .3 7.4.8 7.7.9.9.5 24.8 1.8 34 1.8 20.3.1 37.2-1.3 57.5-4.8 21.7-3.8 33.3-6.7 52-13 95.5-32.1 172.2-106 207.8-200 6.1-16 14-44.1 16.1-57 .3-1.7.9-5.6 1.5-8.8.6-3.2 1.3-8.4 1.7-11.5.3-3.1.8-6.6 1-7.7.2-1.1.7-7.6 1-14.5 1.8-33.5-.6-65.1-7.1-93.6-.8-3.4-1.6-7.3-1.9-8.5-2.3-11.5-10.2-35-17.3-51.9C627.1 136.6 562 71.7 481.4 38 462.7 30.2 434 21.3 419 18.7c-1.4-.3-6.3-1.2-11-2-4.7-.9-10.7-1.8-13.5-2.2-2.7-.3-6.6-.7-8.5-1-8.3-1-44.6-2.5-45.3-1.8zM380 36.3c1.4.3 5 .8 8.1 1.1 5.4.5 15.7 2 20.9 3.1 1.4.3 3.9.8 5.5 1.1 21.9 3.9 55.1 15.5 78 27.2 20.6 10.5 48.1 28.8 62.9 41.9 63.1 55.6 99.7 126.6 108.3 209.8 1 9.8 1 48.3 0 58.3-1.5 15.2-3.9 29.6-8.2 48.2-4.1 18.3-12.7 41.4-23 62.5-38.2 77.9-107.5 136.7-190.7 161.9-6.5 2-12.8 3.7-14 4-1.3.2-5 1.1-8.3 1.9-6.6 1.7-28.3 5.2-38.5 6.3-9.3 1-50 1-59.5.1-10.7-1-15.5-1.6-18.5-2.2-1.4-.3-4.3-.7-6.5-1.1-18-2.5-51.6-12.5-71.5-21.1-82.3-35.7-144.7-103.6-173.7-188.8-4.6-13.6-9.8-34.6-11.8-47.5-.3-1.9-.8-4.6-1-6-2.8-14.5-4-57.7-2.2-76 1.2-12 1.4-13.3 2.1-18 .4-2.5 1-5.9 1.2-7.5 1.9-12.1 10.2-43.9 13.3-51 .5-1.1 1.4-3.6 2.1-5.5.7-1.9 1.6-4.4 2-5.5 5.6-13.3 8-18.6 12.7-27.8 17.2-33.8 43.2-67.2 71.4-91.6 4.1-3.6 7.9-7 8.4-7.5 2.7-2.9 22.3-16.9 33.2-23.7 42.1-26.4 92.4-43.2 139.3-46.5 4.7-.3 8.7-.8 9-1.1.6-.5 45.7.4 49 1z"/><path d="M358.7 60.2c-8.2 10.3-12.2 17.6-16 28.8-5.9 17.5-6.5 38.8-1.7 59.5 4.2 18.1 10.6 32.9 24.9 57.3 11.5 19.8 14.9 29.8 15.6 45.2.3 7.6-.4 13.1-3.3 25.7-1.5 6.7 1 5.4 5-2.5 2.9-5.7 6.8-17.6 8.4-25.5.6-3.2 1.6-9.8 2-13.2.6-5.7.6-24-.1-30-1.8-15.4-8.3-36.6-15.4-49.7-16.8-31.2-18.9-37.4-19.6-57.3-.3-9.5 1.4-24.1 4-33.8 2.6-10.1 1.7-11.2-3.8-4.5zM290.9 112.7c-.1 12.9-1.8 19.4-8.9 34.8-10.5 22.6-11.3 39.5-2.8 56.5 3.6 7 14.7 19 21 22.7l3.6 2.1-1.3-4.6c-4.2-14.4-3.3-27.9 2.6-41 1.2-2.6 3.2-7.1 4.6-10.1 5.4-12 6.6-23 3.7-34.4-2.8-11.5-9.6-22.1-18.1-28.5l-4.3-3.3-.1 5.8zM247.5 156c-5.1 3.4-12.5 11.2-15.5 16.5-10.5 18.4-14.4 44.7-9.5 65 2.8 11.9 14.3 38 19.1 43.6.8.8 1.4 1.9 1.4 2.3 0 .3 2 3.7 4.4 7.4 20.7 31.9 28.9 48.6 31.2 62.9.5 2.7.9 5.1 1 5.5.1.5.2 1.9.3 3.3.5 9.9 6.2-10.8 8.8-32 1-7.7 1-34.6.1-40.5-2.6-16.8-7.5-31.9-14.5-45-2.5-4.7-9.7-16.6-16-26.5-17.7-27.7-18.7-31.9-12.1-49.5 1.1-3 2.4-6.4 2.9-7.5 1.9-4.4 2.8-7.5 2.1-7.5-.4 0-2 .9-3.7 2z"/><path d="M210.8 184.9c-13.7 5.4-31.1 19.1-38.6 30.4-15 22.6-15.6 51.4-1.6 76.5 3.1 5.5 15.4 22.6 17.4 24.2 2 1.6 15.1 18.9 20.5 27 11.8 18 21.3 40.3 24.1 57 .3 1.4.7 3.1.9 3.8 1.9 5.4 2.7 37.8 1.2 50.1-.9 7-2.9 17.3-5.3 26.5-.9 3.3-1.1 6.3-.7 6.7 1.1 1.1 8.6-11.3 13.8-22.6 3.5-7.5 10-25.8 10.9-30.7.2-1.3.7-4.1 1.1-6.3.4-2.2.9-4.9 1.1-6 .9-4.8 1.8-18.8 1.8-28-.1-47.9-13.8-85.2-45.4-123-14.2-17.1-18.9-26.4-19.6-39.5-.8-15.1 4.9-28.1 18.5-42.3 3-3.1 5.3-5.7 5.1-5.7-.3.1-2.6.9-5.2 1.9zM429.7 226c-.3.8-1.3 4-2.3 7-1.9 6-3.5 8.8-10.7 17.8-19.2 24.5-22.2 51.5-9.3 84.6l4.3 11 .6-12.5c.7-12.9.7-13.5 2.7-20.9 1.8-7.2 4.5-14.1 10.9-27.7 8.4-18.1 9.5-22.3 9.5-37.3 0-11.4-.2-13-2.6-18-1.6-3.5-2.7-5-3.1-4zM455.6 253.5c-2.7 2.8-4.4 6.8-7.2 17.2-2.1 7.9-2.7 12.2-2.8 22.3-.2 18.9.7 23.7 8.9 47 6.1 17.6 8.5 29.2 8.1 40-.3 10.2-1.6 13.3-6.7 15.8-7.8 3.9-13.3 1-22.6-11.8-3.9-5.4-6.1-7.6-6.8-6.9-.5.5-.9 4.9-.9 9.7.1 14.7 3.8 22.3 18.5 37.9 15.7 16.7 26.4 36.9 30.4 57.4 3.4 17.1 3.8 39.5 1 55.2-.3 1.2-.6 3.8-.9 5.7-.5 3.5-1.4 9.5-2.2 14-1 6.3-1.5 11-1.1 11 1.2 0 16.1-23.7 21-33.5 10.2-20.5 19.5-50.3 23-74.5 1.9-12.3 1.9-41.1.1-51.2-4-23-9.1-36-23.9-60.8-20.8-35.2-27.8-51.6-30.1-70.3-.3-2.3-.7-5.2-1-6.4-.2-1.2-.7-5.1-1-8.6-.9-11.1-1.2-11.8-3.8-9.2z"/><path d="M358.3 282.7c-11.6 11.4-30.2 37.6-43 60.8-2.8 4.9-6.7 12.1-8.8 16-2.1 3.8-4.9 8.7-6.2 10.7-1.3 2.1-2.3 3.9-2.3 4.1 0 .2-2.8 5.3-6.1 11.3-10.6 18.9-20.4 39.3-27.7 57.5-8 19.9-17.6 49-19.8 59.4-4.6 22.6-5.2 47.4-1.4 60.5 10.3 35.7 45.4 64.3 89.1 72.5 28.6 5.3 60.1-1.7 87.9-19.7 7.3-4.7 19.9-16.6 24.7-23.1 2-2.9 4-5.4 4.3-5.7.8-.8 3.1-4.9 6.5-12 5.1-10.3 7-18.9 7-31.5 0-16.2-1.4-23.4-7.9-41.6-5.4-15.1-8.8-20.8-29-48.9-20.5-28.6-35.3-52.2-40-64.2-3.7-9.3-15.1-50.1-17.1-60.8-.3-1.4-.7-3.6-.9-5-1.2-6-1.8-15.2-1.6-23.5.4-21.8.4-22.5-.9-22.5-.6 0-3.6 2.6-6.8 5.7zM174.6 335.2c1.1 1.9 4.8 7.2 5.4 7.8 3.1 3.1 8.9 14.9 11.2 22.9 1.7 5.9 1.9 7.4 1.9 17.1.1 7.7-.8 13.3-4.5 30-5.1 22.9-5.7 26.8-5.9 39-.3 19.7 4 38.4 13.5 59.2 2.7 5.7 4.5 8.5 5.3 8.1 2.5-.9 13-36.2 15-50.3.3-2.5.8-5.6 1-7 1.8-11.9 2.3-31.1 1-43-2.8-28.3-14.5-57.6-28.8-72.7-7-7.4-17.5-15.1-15.1-11.1z"/></svg>